#!OML:ASF F:\VICON\USERDATA\INSTALL\rory3\rory3.ASF
:FULLY-SPECIFIED
:DEGREES
46
root 0.6782323014782755 17.89001249872601 26.57004349767601 -3.069613090624321 -0.24524546076620513 1.6430265196858822
lfemur 3.5162891621395858 -4.283016249969587 -24.116451681690194
ltibia 38.082655833629815
lfoot -4.537246078125584 -2.6443779928630375
ltoes -7.269690519386032
rfemur -22.855768928672028 1.1899463771232992 18.880786540043815
rtibia 36.97816545578333
rfoot -9.14146097944702 -3.6788755503052784
rtoes 6.457487957252349
lowerback 1.0 -1.324643981756319 -2.4895774007419056
upperback 0.4397430776620216 -1.971737630706328 1.6895703022610147
thorax -4.887054396302852 -0.916661066569668 3.4125111370497936
lowerneck -16.099377884931844 -2.466015475183711 -1.9772771429616278
upperneck 24.405325245491394 -2.7311834779897133 -0.511259983231161
head 10.554362555679704 -1.52929799571744 -0.1958089274558213
lclavicle -1.962489813593756e-15 -2.388255565967961e-16
lhumerus -26.304917952553396 -1.6284594053294539 81.83422367030803
lradius 23.24790001353838
lwrist 5.47676728356555
lhand -27.941518246435738 23.04566044003843
lfingers nan
lthumb -1.0505105739755791 52.961984709226485
rclavicle -1.927778283339698e-15 -2.127733171702141e-16
rhumerus -37.062314190800286 -28.262005412392256 -74.97449026508933
rradius 28.437397292636025
rwrist 2.3036286414863754
rhand -18.147961866170668 1.0
rfingers nan
rthumb 8.512614117519915 -7.766705810145881
47
root 0.7160791461762355 17.881826530417854 27.981278855800724 -3.114748339331573 -0.3777853703950418 0.9760336130341254
lfemur 2.1318219840144152 -4.028013632518565 -23.151837902482935
ltibia 41.57669001898806
lfoot -5.1088209133388816 -1.6205114411955943
ltoes -6.207292403229055
rfemur -22.583321286236213 1.295725271729593 19.784044370183224
rtibia 36.135321263800115
rfoot -10.571942227680593 -5.527345573003689
rtoes 6.2041255184589446
lowerback 1.0 -1.3579397784922294 -2.0550307833158405
upperback 0.3767102859214954 -1.9451155963639335 1.841379922014659
thorax -4.974104897518844 -0.923462445174797 3.313015079499312
lowerneck -16.09167601717107 -2.4775225076789056 -1.961098215122017
upperneck 24.440303960877355 -2.751309806668705 -0.5947614583252825
head 10.553127666685418 -1.543239168753996 -0.23762187795159861
lclavicle -1.964519736676681e-15 -2.4074041869602605e-16
lhumerus -26.840528984284987 -1.2714663017172967 82.07639099990774
lradius 21.444789591580495
lwrist 6.034472117438536
lhand -27.946204217689232 22.945100418457226
lfingers nan
lthumb -1.0905451886899273 52.82322348082081
rclavicle -1.9280273089369918e-15 -2.1316731095667594e-16
rhumerus -37.01307884740986 -29.416510259347096 -73.32620687217302
rradius 28.97058916671576
rwrist 4.894462496144533
rhand -18.111815581513827 1.0
rfingers nan
rthumb 8.517910981939401 -7.728188366594543
48
root 0.7565627799802017 17.88177198453448 29.158695137056206 -2.9482236888606677 -0.43214493502381 -0.025083092219404524
lfemur 0.3982008848447034 -3.668178058031361 -21.696100029682757
ltibia 44.96602965403847
lfoot -4.839294566050452 -0.26533143438481654
ltoes -6.314545288046912
rfemur -22.122410372890485 1.6043020509563348 21.191779258668078
rtibia 35.725882135288856
rfoot -12.121443242285382 -7.171612231939682
rtoes 5.713028449879507
lowerback 1.0 -1.4539330408781674 -1.4280711216976405
upperback 0.2745876760858694 -1.954386722102363 2.014920206952095
thorax -5.063637551816594 -0.9199611360886657 3.3166237454159284
lowerneck -16.117408451925375 -2.4851896649959793 -1.9092091149755688
upperneck 24.37976718765364 -2.774184960015269 -0.6562205645471116
head 10.519690811638087 -1.55894724316694 -0.27285109579324185
lclavicle -1.9648210664067627e-15 -2.4150108459421683e-16
lhumerus -27.507690654665147 -0.7297502605455204 82.32096884775773
lradius 20.06790387803835
lwrist 6.537991549795358
lhand -27.900502116220103 22.972639848617703
lfingers nan
lthumb -1.028682391467966 52.794164671836
rclavicle -1.92800824143119e-15 -2.1355986429530066e-16
rhumerus -36.61333117210773 -30.392757406539484 -71.98718217516115
rradius 29.23569293511134
rwrist 6.776365842516866
rhand -18.16830336867381 1.0
rfingers nan
rthumb 8.425126810171339 -7.931447810837196
49
root 0.7800051193712962 17.87339465677354 29.837765490336295 -3.1657307261029963 -0.7428936756568449 -0.39386433581769764
lfemur -1.0119063713549359 -3.134046919280263 -20.760067833660003
ltibia 47.578497509395866
lfoot -5.192170286989478 0.06946015679484763
ltoes -6.383203044712868
rfemur -20.15841387361161 1.8338313498374945 22.463362030640475
rtibia 34.693594392056106
rfoot -13.607276844206583 -8.376627669177225
rtoes 4.88533919511853
lowerback 1.0 -1.3408687085074162 -1.2707796744688933
upperback 0.27495815838440835 -1.7661192786553845 2.056858628811991
thorax -5.049372049991523 -0.8106648731135035 3.3275110619335915
lowerneck -16.152689156608258 -2.504327286265148 -1.854921561300934
upperneck 24.343517308374572 -2.8172315960947425 -0.6994798952833751
head 10.49658761163445 -1.578527701179452 -0.30779660303562545
lclavicle -1.965088760244394e-15 -2.41878724998579e-16
lhumerus -28.368013496043563 -0.06333948655353039 82.55902424759405
lradius 19.277742868476363
lwrist 6.7930377478903115
lhand -27.897602474238802 22.88131248497443
lfingers nan
lthumb -1.0135361193769759 52.710657427679756
rclavicle -1.9296379065581734e-15 -2.150535176775917e-16
rhumerus -35.974068430612064 -31.096865491783788 -71.05726270439186
rradius 29.272689593825053
rwrist 7.027946225517815
rhand -18.17658596471042 1.0
rfingers nan
rthumb 8.39583196552711 -8.055086322441248
